<svg width="932" height="74" viewBox="0 0 932 74" fill="none" xmlns="http://www.w3.org/2000/svg">
<path d="M72.4863 1.64307L64.3599 72H41.5015C39.4155 61.1937 37.5758 48.9098 35.9824 35.1484C35.2581 41.0296 33.5633 53.3135 30.8979 72H8.16992L0 1.64307H17.7739L19.6426 26.1963L21.5547 49.8804C22.221 37.6255 23.9014 21.5464 26.5957 1.64307H45.6299C45.8906 3.70003 46.557 11.4354 47.6289 24.8491L49.6279 51.5752C50.6419 34.569 52.3368 17.925 54.7124 1.64307H72.4863ZM115.335 34.5835V48.707C115.335 53.8929 115.074 57.7026 114.553 60.1362C114.031 62.5409 112.916 64.8006 111.207 66.9155C109.497 69.0015 107.295 70.5514 104.601 71.5654C101.936 72.5505 98.8647 73.043 95.3882 73.043C91.506 73.043 88.2178 72.6229 85.5234 71.7827C82.8291 70.9136 80.7287 69.6243 79.2222 67.915C77.7446 66.1768 76.6872 64.0908 76.0498 61.6572C75.4124 59.1947 75.0938 55.5153 75.0938 50.6191V35.8438C75.0938 30.484 75.6732 26.2977 76.832 23.2847C77.9909 20.2716 80.0768 17.8525 83.0898 16.0273C86.1029 14.2021 89.9561 13.2896 94.6494 13.2896C98.5895 13.2896 101.965 13.8835 104.775 15.0713C107.614 16.2301 109.801 17.7511 111.337 19.6343C112.872 21.5174 113.915 23.4585 114.466 25.4575C115.045 27.4565 115.335 30.4985 115.335 34.5835ZM97.7783 30.2378C97.7783 27.2827 97.619 25.4285 97.3003 24.6753C96.9816 23.8931 96.3008 23.502 95.2578 23.502C94.2148 23.502 93.5195 23.8931 93.1719 24.6753C92.8242 25.4285 92.6504 27.2827 92.6504 30.2378V56.2686C92.6504 58.9919 92.8242 60.7736 93.1719 61.6138C93.5195 62.425 94.2004 62.8306 95.2144 62.8306C96.2573 62.8306 96.9382 62.4539 97.2568 61.7007C97.6045 60.9474 97.7783 59.325 97.7783 56.8335V30.2378ZM138.715 14.3325L138.02 21.894C140.569 16.4764 144.263 13.6082 149.101 13.2896V33.584C145.885 33.584 143.524 34.0186 142.018 34.8877C140.511 35.7568 139.584 36.9736 139.236 38.5381C138.889 40.0736 138.715 43.637 138.715 49.2285V72H121.158V14.3325H138.715ZM171.134 1.64307V72H153.056V1.64307H171.134ZM217.416 1.64307V72H199.859V67.8281C198.179 69.5664 196.411 70.8701 194.557 71.7393C192.703 72.6084 190.762 73.043 188.734 73.043C186.011 73.043 183.649 72.3332 181.65 70.9136C179.651 69.465 178.362 67.7992 177.783 65.916C177.232 64.0329 176.957 60.9619 176.957 56.7031V29.7163C176.957 25.2837 177.232 22.1403 177.783 20.2861C178.362 18.432 179.666 16.8096 181.694 15.4189C183.722 13.9993 186.141 13.2896 188.951 13.2896C191.124 13.2896 193.109 13.6807 194.905 14.4629C196.73 15.2451 198.381 16.4185 199.859 17.9829V1.64307H217.416ZM199.859 28.8472C199.859 26.7323 199.671 25.3127 199.294 24.5884C198.946 23.8641 198.236 23.502 197.165 23.502C196.122 23.502 195.412 23.8351 195.035 24.5015C194.688 25.1388 194.514 26.5874 194.514 28.8472V57.0942C194.514 59.4409 194.688 60.9909 195.035 61.7441C195.383 62.4684 196.049 62.8306 197.034 62.8306C198.164 62.8306 198.917 62.425 199.294 61.6138C199.671 60.7736 199.859 58.7456 199.859 55.5298V28.8472ZM295.508 1.64307H313.76C319.525 1.64307 323.885 2.09212 326.84 2.99023C329.824 3.88835 332.229 5.71354 334.054 8.46582C335.879 11.1891 336.792 15.5928 336.792 21.6768C336.792 25.7907 336.14 28.6589 334.836 30.2812C333.562 31.9036 331.027 33.1494 327.231 34.0186C331.461 34.9746 334.329 36.568 335.836 38.7988C337.342 41.0007 338.096 44.3903 338.096 48.9678V55.4863C338.096 60.2376 337.545 63.7576 336.444 66.0464C335.372 68.3351 333.649 69.8996 331.273 70.7397C328.897 71.5799 324.03 72 316.671 72H295.508V1.64307ZM313.803 13.6807V29.3252C314.585 29.2962 315.194 29.2817 315.628 29.2817C317.425 29.2817 318.569 28.8472 319.062 27.978C319.554 27.0799 319.8 24.5449 319.8 20.373C319.8 18.1712 319.597 16.6357 319.192 15.7666C318.786 14.8685 318.25 14.3035 317.584 14.0718C316.947 13.84 315.686 13.7096 313.803 13.6807ZM313.803 40.2764V59.9624C316.382 59.8755 318.019 59.4699 318.714 58.7456C319.438 58.0213 319.8 56.2396 319.8 53.4004V46.8384C319.8 43.8254 319.482 42.0002 318.844 41.3628C318.207 40.7254 316.527 40.3633 313.803 40.2764ZM383.899 34.5835V48.707C383.899 53.8929 383.639 57.7026 383.117 60.1362C382.596 62.5409 381.48 64.8006 379.771 66.9155C378.062 69.0015 375.86 70.5514 373.166 71.5654C370.5 72.5505 367.429 73.043 363.953 73.043C360.07 73.043 356.782 72.6229 354.088 71.7827C351.394 70.9136 349.293 69.6243 347.787 67.915C346.309 66.1768 345.252 64.0908 344.614 61.6572C343.977 59.1947 343.658 55.5153 343.658 50.6191V35.8438C343.658 30.484 344.238 26.2977 345.396 23.2847C346.555 20.2716 348.641 17.8525 351.654 16.0273C354.667 14.2021 358.521 13.2896 363.214 13.2896C367.154 13.2896 370.529 13.8835 373.339 15.0713C376.179 16.2301 378.366 17.7511 379.901 19.6343C381.437 21.5174 382.48 23.4585 383.03 25.4575C383.61 27.4565 383.899 30.4985 383.899 34.5835ZM366.343 30.2378C366.343 27.2827 366.183 25.4285 365.865 24.6753C365.546 23.8931 364.865 23.502 363.822 23.502C362.779 23.502 362.084 23.8931 361.736 24.6753C361.389 25.4285 361.215 27.2827 361.215 30.2378V56.2686C361.215 58.9919 361.389 60.7736 361.736 61.6138C362.084 62.425 362.765 62.8306 363.779 62.8306C364.822 62.8306 365.503 62.4539 365.821 61.7007C366.169 60.9474 366.343 59.325 366.343 56.8335V30.2378ZM405.411 36.6694H388.94V32.8018C388.94 28.3402 389.447 24.9071 390.461 22.5024C391.504 20.0688 393.576 17.925 396.676 16.0708C399.776 14.2166 403.803 13.2896 408.757 13.2896C414.696 13.2896 419.172 14.347 422.185 16.4619C425.198 18.5479 427.009 21.1263 427.617 24.1973C428.226 27.2393 428.53 33.526 428.53 43.0576V72H411.451V66.8721C410.379 68.929 408.989 70.479 407.279 71.522C405.599 72.536 403.585 73.043 401.239 73.043C398.168 73.043 395.343 72.1883 392.765 70.479C390.215 68.7407 388.94 64.96 388.94 59.1367V54.3999C388.94 50.0832 389.621 47.1426 390.983 45.5781C392.345 44.0137 395.72 42.1885 401.108 40.1025C406.874 37.8428 409.959 36.3218 410.365 35.5396C410.77 34.7573 410.973 33.1639 410.973 30.7593C410.973 27.7463 410.741 25.7907 410.278 24.8926C409.843 23.9655 409.104 23.502 408.062 23.502C406.874 23.502 406.135 23.8931 405.845 24.6753C405.556 25.4285 405.411 27.4131 405.411 30.6289V36.6694ZM410.973 44.5786C408.163 46.6356 406.526 48.3594 406.062 49.75C405.628 51.1406 405.411 53.1396 405.411 55.7471C405.411 58.7311 405.599 60.6577 405.976 61.5269C406.381 62.396 407.163 62.8306 408.322 62.8306C409.423 62.8306 410.133 62.4974 410.452 61.8311C410.799 61.1357 410.973 59.3395 410.973 56.4424V44.5786ZM452.127 14.3325L451.432 21.894C453.981 16.4764 457.675 13.6082 462.513 13.2896V33.584C459.297 33.584 456.936 34.0186 455.43 34.8877C453.923 35.7568 452.996 36.9736 452.648 38.5381C452.301 40.0736 452.127 43.637 452.127 49.2285V72H434.57V14.3325H452.127ZM506.405 1.64307V72H488.848V67.8281C487.168 69.5664 485.401 70.8701 483.546 71.7393C481.692 72.6084 479.751 73.043 477.723 73.043C475 73.043 472.639 72.3332 470.64 70.9136C468.641 69.465 467.351 67.7992 466.772 65.916C466.222 64.0329 465.946 60.9619 465.946 56.7031V29.7163C465.946 25.2837 466.222 22.1403 466.772 20.2861C467.351 18.432 468.655 16.8096 470.683 15.4189C472.711 13.9993 475.13 13.2896 477.94 13.2896C480.113 13.2896 482.098 13.6807 483.894 14.4629C485.719 15.2451 487.371 16.4185 488.848 17.9829V1.64307H506.405ZM488.848 28.8472C488.848 26.7323 488.66 25.3127 488.283 24.5884C487.936 23.8641 487.226 23.502 486.154 23.502C485.111 23.502 484.401 23.8351 484.024 24.5015C483.677 25.1388 483.503 26.5874 483.503 28.8472V57.0942C483.503 59.4409 483.677 60.9909 484.024 61.7441C484.372 62.4684 485.038 62.8306 486.023 62.8306C487.153 62.8306 487.907 62.425 488.283 61.6138C488.66 60.7736 488.848 58.7456 488.848 55.5298V28.8472ZM555.207 27.5435H536.912V21.1553C536.912 17.1283 536.738 14.6077 536.39 13.5938C536.042 12.5798 535.217 12.0728 533.913 12.0728C532.783 12.0728 532.015 12.5073 531.61 13.3765C531.204 14.2456 531.001 16.4764 531.001 20.0688V53.835C531.001 56.9928 531.204 59.0788 531.61 60.0928C532.015 61.0778 532.827 61.5703 534.043 61.5703C535.376 61.5703 536.274 61.0054 536.738 59.8755C537.23 58.7456 537.477 56.5438 537.477 53.27V44.9263H533.783V34.2358H555.207V72H543.691L541.996 66.959C540.75 69.1318 539.171 70.7687 537.259 71.8696C535.376 72.9416 533.145 73.4775 530.567 73.4775C527.496 73.4775 524.613 72.7388 521.919 71.2612C519.254 69.7547 517.226 67.9006 515.835 65.6987C514.444 63.4969 513.575 61.1937 513.228 58.7891C512.88 56.3555 512.706 52.7196 512.706 47.8813V26.9785C512.706 20.2572 513.068 15.3755 513.792 12.3335C514.517 9.2915 516.588 6.51025 520.007 3.98975C523.454 1.44027 527.902 0.165527 533.348 0.165527C538.708 0.165527 543.155 1.26644 546.689 3.46826C550.224 5.67008 552.527 8.29199 553.599 11.334C554.671 14.347 555.207 18.7362 555.207 24.5015V27.5435ZM577.5 36.6694H561.03V32.8018C561.03 28.3402 561.537 24.9071 562.551 22.5024C563.594 20.0688 565.666 17.925 568.766 16.0708C571.866 14.2166 575.893 13.2896 580.847 13.2896C586.786 13.2896 591.262 14.347 594.275 16.4619C597.288 18.5479 599.099 21.1263 599.707 24.1973C600.315 27.2393 600.62 33.526 600.62 43.0576V72H583.541V66.8721C582.469 68.929 581.078 70.479 579.369 71.522C577.689 72.536 575.675 73.043 573.329 73.043C570.258 73.043 567.433 72.1883 564.854 70.479C562.305 68.7407 561.03 64.96 561.03 59.1367V54.3999C561.03 50.0832 561.711 47.1426 563.073 45.5781C564.434 44.0137 567.81 42.1885 573.198 40.1025C578.964 37.8428 582.049 36.3218 582.455 35.5396C582.86 34.7573 583.063 33.1639 583.063 30.7593C583.063 27.7463 582.831 25.7907 582.368 24.8926C581.933 23.9655 581.194 23.502 580.151 23.502C578.964 23.502 578.225 23.8931 577.935 24.6753C577.645 25.4285 577.5 27.4131 577.5 30.6289V36.6694ZM583.063 44.5786C580.253 46.6356 578.616 48.3594 578.152 49.75C577.718 51.1406 577.5 53.1396 577.5 55.7471C577.5 58.7311 577.689 60.6577 578.065 61.5269C578.471 62.396 579.253 62.8306 580.412 62.8306C581.513 62.8306 582.223 62.4974 582.542 61.8311C582.889 61.1357 583.063 59.3395 583.063 56.4424V44.5786ZM624 14.3325L623.695 19.8081C625.057 17.6353 626.679 16.0129 628.562 14.9409C630.446 13.84 632.59 13.2896 634.994 13.2896C639.688 13.2896 643.381 15.4624 646.076 19.8081C647.553 17.6353 649.219 16.0129 651.073 14.9409C652.927 13.84 654.984 13.2896 657.244 13.2896C660.228 13.2896 662.691 14.0138 664.632 15.4624C666.602 16.911 667.862 18.6927 668.413 20.8076C668.963 22.8936 669.238 26.2977 669.238 31.02V72H652.203V34.4097C652.203 29.4845 652.029 26.4425 651.682 25.2837C651.363 24.0959 650.595 23.502 649.378 23.502C648.133 23.502 647.321 24.0814 646.945 25.2402C646.597 26.3991 646.423 29.4556 646.423 34.4097V72H629.388V35.3657C629.388 29.7163 629.243 26.3267 628.954 25.1968C628.693 24.0669 627.94 23.502 626.694 23.502C625.912 23.502 625.245 23.8062 624.695 24.4146C624.144 24.994 623.84 25.7183 623.782 26.5874C623.724 27.4276 623.695 29.2383 623.695 32.0195V72H606.66V14.3325H624ZM715.085 44.1875H692.357V56.6597C692.357 59.2671 692.546 60.9474 692.922 61.7007C693.299 62.4539 694.023 62.8306 695.095 62.8306C696.428 62.8306 697.312 62.3381 697.746 61.353C698.21 60.339 698.441 58.3979 698.441 55.5298V47.9248H715.085V52.1836C715.085 55.7471 714.854 58.4849 714.39 60.397C713.956 62.3091 712.913 64.3516 711.261 66.5244C709.61 68.6973 707.509 70.3341 704.96 71.4351C702.439 72.507 699.267 73.043 695.443 73.043C691.735 73.043 688.461 72.507 685.622 71.4351C682.782 70.3631 680.566 68.9001 678.973 67.0459C677.408 65.1628 676.322 63.1058 675.713 60.875C675.105 58.6152 674.801 55.3415 674.801 51.0537V34.2358C674.801 29.1948 675.482 25.2257 676.843 22.3286C678.205 19.4025 680.436 17.1717 683.536 15.6362C686.636 14.0718 690.199 13.2896 694.226 13.2896C699.151 13.2896 703.207 14.2311 706.394 16.1143C709.61 17.9684 711.855 20.4455 713.13 23.5454C714.434 26.6164 715.085 30.9476 715.085 36.5391V44.1875ZM697.485 34.8008V30.5854C697.485 27.6014 697.326 25.6748 697.007 24.8057C696.689 23.9365 696.037 23.502 695.052 23.502C693.835 23.502 693.082 23.8786 692.792 24.6318C692.502 25.3561 692.357 27.3407 692.357 30.5854V34.8008H697.485ZM756.717 32.7583H741.16V29.6294C741.16 26.964 741 25.2837 740.682 24.5884C740.392 23.8641 739.639 23.502 738.422 23.502C737.437 23.502 736.698 23.8351 736.206 24.5015C735.713 25.1388 735.467 26.1094 735.467 27.4131C735.467 29.1803 735.583 30.484 735.814 31.3242C736.075 32.1354 736.814 33.0335 738.031 34.0186C739.277 35.0036 741.812 36.4377 745.636 38.3208C750.735 40.8123 754.081 43.159 755.674 45.3608C757.268 47.5627 758.064 50.764 758.064 54.9648C758.064 59.6582 757.456 63.2072 756.239 65.6118C755.022 67.9875 752.98 69.8271 750.112 71.1309C747.273 72.4056 743.84 73.043 739.812 73.043C735.351 73.043 731.527 72.3477 728.34 70.957C725.182 69.5664 723.009 67.6833 721.821 65.3076C720.633 62.932 720.04 59.3395 720.04 54.5303V51.749H735.597V55.3994C735.597 58.4993 735.785 60.5129 736.162 61.4399C736.568 62.367 737.35 62.8306 738.509 62.8306C739.755 62.8306 740.624 62.5264 741.116 61.918C741.609 61.2806 741.855 59.9624 741.855 57.9634C741.855 55.2111 741.536 53.4873 740.899 52.792C740.233 52.0967 736.828 50.0397 730.687 46.6211C725.53 43.724 722.386 41.1021 721.256 38.7554C720.126 36.3797 719.562 33.5695 719.562 30.3247C719.562 25.7183 720.17 22.3286 721.387 20.1558C722.604 17.9539 724.66 16.2591 727.558 15.0713C730.484 13.8835 733.873 13.2896 737.727 13.2896C741.551 13.2896 744.796 13.7821 747.461 14.7671C750.155 15.7231 752.212 16.9979 753.632 18.5913C755.08 20.1847 755.95 21.6623 756.239 23.0239C756.558 24.3856 756.717 26.515 756.717 29.4121V32.7583Z" fill="black"/>
<path d="M263.437 34.5835V48.707C263.437 53.8929 263.176 57.7026 262.654 60.1362C262.133 62.5409 261.017 64.8006 259.308 66.9155C257.599 69.0015 255.397 70.5514 252.703 71.5654C250.037 72.5505 246.966 73.043 243.49 73.043C239.608 73.043 236.319 72.6229 233.625 71.7827C230.931 70.9136 228.83 69.6243 227.324 67.915C225.846 66.1768 224.789 64.0908 224.151 61.6572C223.514 59.1947 223.195 55.5153 223.195 50.6191V35.8438C223.195 30.484 223.775 26.2977 224.934 23.2847C226.092 20.2716 228.178 17.8525 231.191 16.0273C234.204 14.2021 238.058 13.2896 242.751 13.2896C246.691 13.2896 250.066 13.8835 252.876 15.0713C255.716 16.2301 257.903 17.7511 259.438 19.6343C260.974 21.5174 262.017 23.4585 262.567 25.4575C263.147 27.4565 263.437 30.4985 263.437 34.5835ZM245.88 30.2378C245.88 27.2827 245.721 25.4285 245.402 24.6753C245.083 23.8931 244.402 23.502 243.359 23.502C242.316 23.502 241.621 23.8931 241.273 24.6753C240.926 25.4285 240.752 27.2827 240.752 30.2378V56.2686C240.752 58.9919 240.926 60.7736 241.273 61.6138C241.621 62.425 242.302 62.8306 243.316 62.8306C244.359 62.8306 245.04 62.4539 245.358 61.7007C245.706 60.9474 245.88 59.325 245.88 56.8335V30.2378ZM291.64 1.64307V10.5518C288.019 10.5518 285.875 10.7256 285.208 11.0732C284.571 11.3919 284.252 12.3335 284.252 13.8979V15.7231H291.64V24.8491H287.468V72H269.912V24.8491H266.305V15.7231H269.912C269.912 11.9279 270.042 9.3929 270.303 8.11816C270.563 6.84342 271.201 5.71354 272.215 4.72852C273.258 3.71452 274.706 2.94678 276.561 2.42529C278.415 1.90381 281.297 1.64307 285.208 1.64307H291.64ZM774.448 57.6592V72H761.193V57.6592H774.448ZM817.992 36.1045H801.435V29.4556C801.435 27.1379 801.246 25.5734 800.87 24.7622C800.493 23.922 799.798 23.502 798.784 23.502C797.77 23.502 797.089 23.8641 796.741 24.5884C796.394 25.3127 796.22 26.9351 796.22 29.4556V56.6597C796.22 58.7166 796.48 60.2666 797.002 61.3096C797.523 62.3236 798.291 62.8306 799.305 62.8306C800.493 62.8306 801.29 62.2946 801.695 61.2227C802.13 60.1507 802.347 58.1227 802.347 55.1387V48.2725H817.992C817.963 52.8789 817.789 56.341 817.47 58.6587C817.181 60.9474 816.21 63.3086 814.559 65.7422C812.936 68.1468 810.807 69.972 808.17 71.2178C805.534 72.4346 802.275 73.043 798.393 73.043C793.438 73.043 789.513 72.2028 786.616 70.5225C783.719 68.8132 781.662 66.4375 780.445 63.3955C779.257 60.3245 778.663 55.9788 778.663 50.3584V33.9751C778.663 29.0789 779.156 25.3851 780.141 22.8936C781.126 20.402 783.226 18.1857 786.442 16.2446C789.658 14.2746 793.569 13.2896 798.175 13.2896C802.753 13.2896 806.664 14.2601 809.909 16.2012C813.153 18.1423 815.312 20.5903 816.384 23.5454C817.456 26.5005 817.992 30.6868 817.992 36.1045ZM862.97 34.5835V48.707C862.97 53.8929 862.709 57.7026 862.188 60.1362C861.666 62.5409 860.551 64.8006 858.841 66.9155C857.132 69.0015 854.93 70.5514 852.236 71.5654C849.57 72.5505 846.5 73.043 843.023 73.043C839.141 73.043 835.853 72.6229 833.158 71.7827C830.464 70.9136 828.363 69.6243 826.857 67.915C825.379 66.1768 824.322 64.0908 823.685 61.6572C823.047 59.1947 822.729 55.5153 822.729 50.6191V35.8438C822.729 30.484 823.308 26.2977 824.467 23.2847C825.626 20.2716 827.712 17.8525 830.725 16.0273C833.738 14.2021 837.591 13.2896 842.284 13.2896C846.224 13.2896 849.599 13.8835 852.41 15.0713C855.249 16.2301 857.436 17.7511 858.972 19.6343C860.507 21.5174 861.55 23.4585 862.101 25.4575C862.68 27.4565 862.97 30.4985 862.97 34.5835ZM845.413 30.2378C845.413 27.2827 845.254 25.4285 844.935 24.6753C844.616 23.8931 843.936 23.502 842.893 23.502C841.85 23.502 841.154 23.8931 840.807 24.6753C840.459 25.4285 840.285 27.2827 840.285 30.2378V56.2686C840.285 58.9919 840.459 60.7736 840.807 61.6138C841.154 62.425 841.835 62.8306 842.849 62.8306C843.892 62.8306 844.573 62.4539 844.892 61.7007C845.239 60.9474 845.413 59.325 845.413 56.8335V30.2378ZM886.132 14.3325L885.828 19.8081C887.19 17.6353 888.812 16.0129 890.695 14.9409C892.578 13.84 894.722 13.2896 897.127 13.2896C901.82 13.2896 905.514 15.4624 908.208 19.8081C909.686 17.6353 911.352 16.0129 913.206 14.9409C915.06 13.84 917.117 13.2896 919.377 13.2896C922.361 13.2896 924.824 14.0138 926.765 15.4624C928.735 16.911 929.995 18.6927 930.545 20.8076C931.096 22.8936 931.371 26.2977 931.371 31.02V72H914.336V34.4097C914.336 29.4845 914.162 26.4425 913.814 25.2837C913.496 24.0959 912.728 23.502 911.511 23.502C910.265 23.502 909.454 24.0814 909.078 25.2402C908.73 26.3991 908.556 29.4556 908.556 34.4097V72H891.521V35.3657C891.521 29.7163 891.376 26.3267 891.086 25.1968C890.826 24.0669 890.072 23.502 888.827 23.502C888.044 23.502 887.378 23.8062 886.828 24.4146C886.277 24.994 885.973 25.7183 885.915 26.5874C885.857 27.4276 885.828 29.2383 885.828 32.0195V72H868.793V14.3325H886.132Z" fill="#B6B6B6"/>
</svg>
